HIERARCHY
ROOT hip
{
	OFFSET 0.000000 0.000000 0.000000 
	CHANNELS 6 Xposition Yposition Zposition Xrotation Zrotation Yrotation
	JOINT abdomen
	{
		OFFSET 0.000000 3.402643 0.000000 
		CHANNELS 3 Xrotation Zrotation Yrotation
		JOINT chest
		{
			OFFSET 0.000000 8.438565 -0.680529 
			CHANNELS 3 Xrotation Zrotation Yrotation
			JOINT neck
			{
				OFFSET 0.000000 10.207942 -0.272212 
				CHANNELS 3 Xrotation Zrotation Yrotation
				JOINT head
				{
					OFFSET 0.000000 3.130431 0.000000 
					CHANNELS 3 Xrotation Zrotation Yrotation
					End Site
					{
						OFFSET 0.000000 3.130435 0.000000 
					}
				}
			}
			JOINT lCollar
			{
				OFFSET 3.470700 6.669187 -0.816635 
				CHANNELS 3 Yrotation Zrotation Xrotation
				JOINT lShldr
				{
					OFFSET 3.198488 0.000000 0.000000 
					CHANNELS 3 Zrotation Yrotation Xrotation
					JOINT lForeArm
					{
						OFFSET 10.139888 0.000000 0.000000 
						CHANNELS 3 Yrotation Zrotation Xrotation
						JOINT lHand
						{
							OFFSET 8.370511 0.000000 0.000000 
							CHANNELS 3 Zrotation Yrotation Xrotation
							End Site
							{
								OFFSET 4.083176 0.000000 0.000000 
							}
						}
					}
				}
			}
			JOINT rCollar
			{
				OFFSET -3.470700 6.669187 -0.816635 
				CHANNELS 3 Yrotation Zrotation Xrotation
				JOINT rShldr
				{
					OFFSET -3.198488 0.000000 0.000000 
					CHANNELS 3 Zrotation Yrotation Xrotation
					JOINT rForeArm
					{
						OFFSET -10.139888 0.000000 0.000000 
						CHANNELS 3 Yrotation Zrotation Xrotation
						JOINT rHand
						{
							OFFSET -8.370511 0.000000 0.000000 
							CHANNELS 3 Zrotation Yrotation Xrotation
							End Site
							{
								OFFSET -4.083176 0.000000 0.000000 
							}
						}
					}
				}
			}
		}
	}
	JOINT lThigh
	{
		OFFSET 5.308129 -1.633274 1.361059 
		CHANNELS 3 Xrotation Zrotation Yrotation
		JOINT lShin
		{
			OFFSET -2.041588 -20.007561 0.000000 
			CHANNELS 3 Xrotation Zrotation Yrotation
			JOINT lFoot
			{
				OFFSET 0.000000 -19.190928 -1.224953 
				CHANNELS 3 Xrotation Yrotation Zrotation
				End Site
				{
					OFFSET 0.000000 -2.449906 4.627600 
				}
			}
		}
	}
	JOINT rThigh
	{
		OFFSET -5.308129 -1.633274 1.361059 
		CHANNELS 3 Xrotation Zrotation Yrotation
		JOINT rShin
		{
			OFFSET 2.041588 -20.007561 0.000000 
			CHANNELS 3 Xrotation Zrotation Yrotation
			JOINT rFoot
			{
				OFFSET 0.000000 -19.190928 -1.224953 
				CHANNELS 3 Xrotation Yrotation Zrotation
				End Site
				{
					OFFSET 0.000000 -2.449906 4.627600 
				}
			}
		}
	}
}
MOTION
Frames: 18
Frame Time: 0.033333
19.820206 47.923939 -7.191311 -2.448452 -1.082249 -3.242900 0.000000 0.000000 0.000000 2.189977 -0.936786 2.236508 -17.227779 3.382088 -9.371866 10.011452 1.252509 -6.153643 -3.521967 9.154817 6.304141 -80.262711 -3.371139 -19.165598 -93.672867 -10.129195 14.524280 22.168036 14.796315 -8.185196 3.089181 -14.089146 8.026228 74.921631 0.384542 -30.778440 86.687592 19.434721 53.037945 -19.387533 -21.341719 -7.784388 -1.103847 8.194563 11.682903 23.128077 -5.831488 6.031053 -8.812421 -0.070361 1.376333 0.495490 -16.165165 -19.231668 28.436789 -3.392874 9.338069 -3.990549 -0.002036 -0.434814 
18.695038 47.401863 -7.341816 -2.879525 -1.107957 -5.606683 0.000000 0.000000 0.000000 3.261707 -1.862139 3.302527 -19.608816 4.357901 -9.166658 10.317998 0.476550 -5.195457 -3.521967 9.154817 6.304141 -79.025742 -5.942702 -20.807299 -93.551933 -9.915756 13.793157 21.381081 14.717384 -8.215337 3.089181 -14.089146 8.026228 76.145325 4.360754 -30.013494 86.689682 19.405746 52.465408 -18.491446 -20.381857 -7.976176 -2.431441 10.949487 14.024170 28.548849 -6.787724 3.876020 -8.987490 -0.126069 1.845956 0.544822 -15.562195 -19.316168 30.005554 -3.025544 8.749148 -7.099891 0.040832 -0.976286 
17.512966 46.757133 -7.669368 -3.050614 -1.181606 -7.355165 0.000000 0.000000 0.000000 4.001049 -2.134114 3.742728 -21.597357 3.211534 -7.893024 10.523946 1.547255 -4.816122 -3.521967 9.154817 6.304141 -77.828178 -9.371765 -21.898928 -90.343903 -8.342412 13.950263 19.544683 15.349720 -8.186531 3.089181 -14.089146 8.026228 77.922554 9.370458 -28.546730 85.282692 18.506891 52.570370 -17.618382 -20.130104 -8.068559 -5.858482 14.446605 16.183001 36.930634 -6.953557 0.077785 -5.863419 0.222469 -1.042046 -0.040417 -14.869897 -19.426525 31.594233 -2.502754 7.221258 -12.014915 0.214323 -1.730338 
16.377804 45.954845 -7.994493 -4.024231 -2.128487 -7.817958 0.000000 0.000000 0.000000 6.168451 -1.726103 3.028616 -24.288795 2.095008 -6.693886 11.230385 2.832907 -4.536802 -3.521967 9.154817 6.304141 -76.860077 -13.740576 -22.427862 -85.519531 -6.471073 13.601017 21.342669 11.991026 -8.569261 3.089181 -14.089146 8.026228 78.739517 14.718670 -26.300289 82.273262 17.178528 52.416336 -18.769289 -19.760015 -8.015530 -9.217403 18.663017 17.759888 45.505383 -5.937483 -4.009012 -2.586880 0.380969 -3.806642 0.184761 -13.386639 -19.635664 34.250397 -1.868430 5.260194 -18.644579 0.455738 -2.576007 
15.420106 45.328571 -8.358699 -4.348134 -3.245120 -8.519759 0.000000 0.000000 0.000000 8.634794 -1.189556 3.193887 -29.592884 1.572975 -6.135050 13.604006 3.291786 -4.234984 -3.521967 9.154817 6.304141 -76.855171 -17.596952 -25.262749 -82.264435 -5.925041 20.609743 19.066902 12.154360 -8.543801 3.089181 -14.089146 8.026228 78.335587 18.265385 -25.333767 79.623123 16.990631 54.841045 -19.658583 -19.946566 -7.926108 -13.641459 22.543867 18.084501 53.207771 -4.113573 -5.065472 -0.143713 0.433760 -6.637070 -0.996672 -11.717910 -19.211792 37.704159 -1.712749 4.438010 -22.900770 0.685804 -3.221945 
14.744431 45.034859 -8.528208 -4.625821 -4.466373 -9.727611 0.000000 0.000000 0.000000 10.300235 -0.155768 4.501964 -32.113956 1.369686 -5.890251 14.156861 3.068435 -4.068166 -3.521967 9.154817 6.304141 -79.369705 -19.914618 -28.544115 -81.558022 -6.283258 25.904964 17.085541 12.733131 -8.474340 3.089181 -14.089146 8.026228 77.681541 19.730892 -25.909128 78.077919 17.129755 57.404522 -17.964970 -19.370968 -8.111462 -16.715849 25.215611 17.428045 56.711571 -3.071131 -6.357957 0.180237 0.453397 -7.521226 -1.758850 -10.119762 -18.564772 39.776623 -1.819084 4.569709 -24.072271 0.874311 -3.686250 
14.352015 45.116562 -8.370096 -5.265583 -4.217598 -10.350743 0.000000 0.000000 0.000000 11.084743 0.009736 4.462892 -32.232403 1.642414 -5.636921 14.166108 2.680176 -3.626842 -3.521967 9.154817 6.304141 -82.118683 -19.017614 -31.149467 -83.457436 -6.861934 22.179594 20.838037 11.571146 -8.617107 3.089181 -14.089146 8.026228 77.673782 19.293680 -25.906193 79.433693 17.547812 57.715939 -16.643543 -18.241991 -8.284146 -17.802174 24.568449 15.807950 54.449322 -3.127497 -9.331492 0.672208 0.414405 -7.452499 -1.016180 -9.998980 -18.401197 39.518848 -1.985702 5.196778 -23.785511 0.862740 -3.794366 
14.176683 45.479500 -8.025195 -5.165002 -3.244646 -10.593844 0.000000 0.000000 0.000000 10.462034 -0.107212 3.583977 -32.664318 1.341824 -5.333309 15.849104 2.992274 -3.559521 -3.521967 9.154817 6.304141 -83.204842 -16.214191 -33.136673 -86.517227 -7.148346 18.625822 24.829220 11.398990 -8.656647 3.089181 -14.089146 8.026228 77.743088 17.120190 -24.972742 82.531006 18.005890 56.266479 -17.579798 -17.957064 -8.264422 -18.355867 22.004862 13.494510 48.458534 -3.673435 -13.192839 -0.027340 0.293248 -4.954587 -0.138353 -10.346633 -18.194216 37.740417 -2.180932 4.822849 -22.966311 0.723657 -3.345677 
14.135282 45.988552 -7.594461 -4.566023 -2.426908 -10.810827 0.000000 0.000000 0.000000 8.429011 -0.302184 3.457035 -31.136576 1.234323 -5.596925 17.166950 3.069267 -3.843358 -3.521967 9.154817 6.304141 -83.135300 -13.895853 -33.872387 -88.827477 -6.923978 18.104082 25.667858 11.224759 -8.685205 3.089181 -14.089146 8.026228 78.252975 13.515289 -24.750574 84.832497 18.016640 54.617165 -17.354193 -18.548306 -8.224815 -18.814455 19.583931 11.208019 41.147541 -3.964383 -15.650569 -0.059282 0.208954 -3.211244 0.945753 -10.709142 -18.306013 34.665634 -1.927261 5.048793 -21.227522 0.587953 -2.901957 
14.107219 46.512669 -6.891634 -5.129272 -2.663630 -11.154893 0.000000 0.000000 0.000000 7.627655 0.009740 4.121095 -28.154644 1.184587 -6.134121 17.169752 3.164571 -4.381254 -3.521967 9.154817 6.304141 -82.278618 -11.802517 -35.309395 -91.285248 -7.068075 18.922651 24.527386 11.575253 -8.630492 3.089181 -14.089146 8.026228 78.944954 9.249299 -25.584299 86.253937 17.872564 52.662830 -16.608698 -18.482641 -8.279415 -17.704605 18.173096 9.049840 34.521442 -3.417322 -18.563871 -0.233424 0.084796 -1.577348 4.138440 -10.163780 -18.225342 30.337217 -1.614372 5.401088 -18.772991 0.426111 -2.493574 
14.300633 46.783619 -6.407004 -4.595816 -1.623797 -12.016786 0.000000 0.000000 0.000000 5.995114 -1.157043 5.352637 -26.723093 1.443889 -7.111535 17.819614 2.918442 -5.025932 -3.521967 9.154817 6.304141 -79.629623 -11.170230 -37.023758 -94.472534 -7.459419 18.449722 24.812521 13.768658 -8.285012 3.089181 -14.089146 8.026228 79.770203 6.034730 -27.489698 86.523193 17.589603 52.273670 -15.187631 -17.718628 -8.412676 -18.129660 15.697730 6.598682 28.947680 -2.986405 -24.204756 0.468146 -0.013851 -0.245042 4.457808 -11.330243 -18.524988 28.665771 -1.780087 6.624269 -17.252342 0.364999 -2.298937 
14.561807 46.802471 -5.925915 -4.911136 -1.320737 -13.353424 0.000000 0.000000 0.000000 6.060783 -1.832727 6.800253 -26.755016 1.846907 -8.041090 18.599447 2.682947 -5.494132 -3.521967 9.154817 6.304141 -75.638954 -12.060055 -39.225681 -97.687546 -7.837790 17.101736 26.423185 14.534803 -8.132800 3.089181 -14.089146 8.026228 79.282028 4.366064 -28.882803 85.206001 17.255968 53.310520 -15.246742 -17.287432 -8.448210 -17.825426 14.095550 4.928253 25.506058 -2.417351 -31.905132 3.087338 0.032818 -1.921906 5.043658 -12.249092 -18.706741 28.228163 -2.239247 8.200918 -16.857695 0.369977 -2.460187 
14.880180 46.638657 -5.434861 -5.392796 -1.243525 -15.277171 0.000000 0.000000 0.000000 6.830272 -1.865429 8.217092 -26.777653 1.613890 -8.274782 18.650753 2.972758 -5.847659 -3.521967 9.154817 6.304141 -70.882256 -13.566915 -42.518929 -99.784462 -7.953402 15.934199 27.980766 14.728232 -8.059606 3.089181 -14.089146 8.026228 77.761894 3.856038 -28.907427 83.226952 16.759264 53.732239 -16.124821 -17.469301 -8.386223 -17.341122 13.103199 4.300284 23.926720 -2.017778 -35.837181 5.550703 0.013641 -4.610522 5.465566 -13.248809 -18.790115 28.331850 -2.941224 10.150529 -17.637619 0.527320 -3.018635 
15.241646 46.299744 -4.883778 -5.628755 -1.322809 -17.465828 0.000000 0.000000 0.000000 7.316449 -0.695177 8.623592 -26.472425 0.948864 -7.491141 18.742863 3.236223 -5.643391 -3.521967 9.154817 6.304141 -66.024193 -14.089553 -47.190212 -100.053535 -7.646247 16.654840 28.376450 15.401014 -7.922300 3.089181 -14.089146 8.026228 76.036804 4.830199 -28.498487 81.270386 16.673315 55.132370 -16.303915 -17.466591 -8.373114 -17.012167 13.057093 4.562655 25.503885 -2.211591 -33.879509 3.327655 0.061008 -2.158628 5.463132 -14.084844 -18.556583 28.841686 -3.839941 11.432704 -19.655258 0.690339 -3.616148 
15.599241 46.149033 -4.330573 -5.546426 -1.588032 -19.959421 0.000000 0.000000 0.000000 7.559317 0.887864 8.800033 -26.237947 0.320160 -6.552795 19.223234 3.656370 -5.274102 -3.521967 9.154817 6.304141 -61.818356 -13.657509 -51.829689 -98.715416 -7.150937 19.195507 28.259918 15.676013 -7.883918 3.089181 -14.089146 8.026228 74.857742 6.223252 -27.489828 78.823814 16.268158 57.661079 -16.350805 -17.802872 -8.344338 -16.311533 13.752896 5.822925 26.861410 -3.058866 -31.473955 1.257063 -0.049885 -0.101506 5.643574 -14.511753 -18.145035 27.934412 -4.563235 12.657154 -20.891809 0.859802 -4.139189 
16.055264 46.330524 -3.711179 -5.107502 -0.751925 -21.925819 0.000000 0.000000 0.000000 7.547623 2.160660 7.182913 -26.709381 -0.690913 -4.814809 20.310888 4.410506 -4.456460 -3.521967 9.154817 6.304141 -59.091503 -11.525676 -57.030426 -96.743530 -6.654756 21.165138 28.215994 16.790609 -7.660325 3.089181 -14.089146 8.026228 74.205421 7.283026 -26.339949 78.225464 16.746078 59.551956 -17.110216 -18.075647 -8.281344 -15.486278 12.927643 6.513772 26.090588 -3.820004 -29.151108 0.878638 -0.019565 0.117721 5.620889 -15.941735 -18.521025 26.226681 -4.846397 14.482817 -20.774868 0.954158 -4.451730 
16.467201 46.721203 -3.042272 -4.857121 0.188088 -23.486448 0.000000 0.000000 0.000000 6.594701 2.300169 6.372619 -25.785467 -0.983556 -4.297582 21.480799 5.113281 -4.196098 -3.521967 9.154817 6.304141 -56.025238 -10.674313 -58.592033 -95.245872 -6.327211 22.402935 29.145899 16.838667 -7.614333 3.089181 -14.089146 8.026228 75.487930 6.194715 -26.873627 77.412361 16.809114 61.092434 -16.498920 -17.478685 -8.359922 -13.579591 11.645699 6.952986 23.170849 -4.487336 -27.007751 1.100820 -0.017974 -0.173126 6.039651 -17.199924 -19.253960 24.334478 -4.749998 14.973141 -20.169346 0.938934 -4.434120 
16.754320 47.188190 -2.524665 -4.093004 0.740590 -25.471016 0.000000 0.000000 0.000000 5.033772 2.549932 6.872307 -23.427868 -0.866459 -4.502471 21.564079 5.433926 -4.305724 -3.521967 9.154817 6.304141 -53.372417 -10.714720 -58.932335 -95.139610 -6.146547 21.480362 27.896261 15.456490 -7.924000 3.089181 -14.089146 8.026228 77.576782 3.782964 -27.839437 77.409447 16.632656 60.098389 -17.890875 -17.701389 -8.270557 -11.795829 11.004612 7.323299 19.455618 -4.975490 -24.903629 1.914174 0.036332 -1.253121 5.603973 -17.126818 -19.481232 23.997143 -4.513628 9.919333 -18.908318 0.635994 -3.408773 
